# xmcd
#
# Track frame offsets: 
#        150
#        15996
#        32978
#        53900
#        71061
#
# Disc length: 1159 seconds
#
# Revision: 1
# Processed by: cddbd v1.5.2PL0 Copyright (c) Steve Scherf et al.
# Submitted via: ExactAudioCopy v0.95b2
#
DISCID=3c048505
DTITLE=Gianna Nannini - Extradream
DYEAR=2009
DGENRE=Rock
TTITLE0=Salvami
TTITLE1=Please
TTITLE2=Primadonna
TTITLE3=Aria
TTITLE4=Uó Uó
EXTD=
EXTT0=
EXTT1=
EXTT2=
EXTT3=
EXTT4=
PLAYORDER=
